<svg width="40" height="40" viewBox="0 0 40 40" fill="none" xmlns="http://www.w3.org/2000/svg">
<path d="M16 0H2.66664C1.2 0 0 1.2 0 2.66664V16C0 17.4666 1.19984 18.6666 2.66664 18.6666H16C17.4666 18.6666 18.6666 17.4666 18.6666 16V2.66664C18.6666 1.2 17.4666 0 16 0ZM16 10.6666H2.66664V8H16V10.6666ZM37.3334 0H24C22.5332 0 21.3334 1.2 21.3334 2.66664V37.3333C21.3334 38.8 22.5332 40 24 40H37.3334C38.8 40 40 38.8 40 37.3334V2.66664C40 1.2 38.8 0 37.3334 0ZM37.3334 24H24V21.3333H37.3334V24ZM37.3334 16H24V13.3334H37.3334V16ZM16 21.3334H2.66664C1.2 21.3334 0 22.5334 0 24V37.3333C0 38.8 1.19984 40 2.66664 40H16C17.4666 40 18.6666 38.7999 18.6666 37.3333V24C18.6666 22.5334 17.4666 21.3334 16 21.3334ZM16 32H10.6666V37.3333H8V32H2.66664V29.3333H8V24H10.6666V29.3333H16V32Z" fill="white"/>
</svg>
