<svg width="28" height="20" viewBox="0 0 28 20" fill="none" xmlns="http://www.w3.org/2000/svg">
<path d="M0.5 4C0.5 2.067 2.067 0.5 4 0.5H15.6875L12.6092 3.2436L12.9419 3.61686L12.6092 3.2436C12.0503 3.74174 12.4026 4.66667 13.1513 4.66667H16.5V16C16.5 17.933 14.933 19.5 13 19.5H4C2.067 19.5 0.5 17.933 0.5 16V4Z" stroke="white"/>
<path d="M19.9091 5.26136C19.9091 4.89773 20.0009 4.5767 20.1847 4.2983C20.3703 4.01989 20.6316 3.80208 20.9687 3.64489C21.3078 3.48769 21.7083 3.40909 22.1705 3.40909C22.6288 3.40909 23.0265 3.48769 23.3636 3.64489C23.7008 3.80208 23.9612 4.02083 24.1449 4.30114C24.3286 4.58144 24.4205 4.9053 24.4205 5.27273C24.4205 5.55682 24.3731 5.78125 24.2784 5.94602C24.1856 6.11269 24.0795 6.23958 23.9602 6.3267C23.8428 6.41572 23.7462 6.48485 23.6705 6.53409L23.6705 6.59091L25.8182 6.59091L25.8182 7.26136L20 7.26136L20 6.61364L20.6705 6.61364L20.6705 6.53409C20.5909 6.48485 20.4905 6.41477 20.3693 6.32386C20.25 6.23295 20.143 6.10322 20.0483 5.93466C19.9555 5.7661 19.9091 5.54167 19.9091 5.26136ZM20.5114 5.35227C20.5114 5.62121 20.5814 5.84848 20.7216 6.03409C20.8636 6.2197 21.0597 6.3608 21.3097 6.45739C21.5616 6.55398 21.8523 6.60227 22.1818 6.60227C22.5076 6.60227 22.7926 6.55492 23.0369 6.46023C23.2831 6.36553 23.4744 6.22538 23.6108 6.03977C23.7491 5.85417 23.8182 5.625 23.8182 5.35227C23.8182 5.06818 23.7453 4.83144 23.5994 4.64205C23.4555 4.45455 23.2595 4.31345 23.0114 4.21875C22.7652 4.12595 22.4886 4.07955 22.1818 4.07955C21.8712 4.07955 21.589 4.12689 21.3352 4.22159C21.0833 4.31818 20.8826 4.46023 20.733 4.64773C20.5852 4.83712 20.5114 5.07197 20.5114 5.35227ZM19.9091 10.3551C19.9091 9.96117 20.0028 9.61553 20.1903 9.31818C20.3778 9.02273 20.6402 8.79167 20.9773 8.625C21.3144 8.46023 21.7083 8.37784 22.1591 8.37784C22.6136 8.37784 23.0104 8.46023 23.3494 8.625C23.6884 8.79167 23.9517 9.02273 24.1392 9.31818C24.3267 9.61553 24.4205 9.96117 24.4205 10.3551C24.4205 10.7491 24.3267 11.0937 24.1392 11.3892C23.9517 11.6866 23.6884 11.9176 23.3494 12.0824C23.0104 12.2491 22.6136 12.3324 22.1591 12.3324C21.7083 12.3324 21.3144 12.2491 20.9773 12.0824C20.6402 11.9176 20.3778 11.6866 20.1903 11.3892C20.0028 11.0937 19.9091 10.7491 19.9091 10.3551ZM20.5114 10.3551C20.5114 10.6544 20.5881 10.9006 20.7415 11.0937C20.8949 11.2869 21.0966 11.4299 21.3466 11.5227C21.5966 11.6155 21.8674 11.6619 22.1591 11.6619C22.4508 11.6619 22.7225 11.6155 22.9744 11.5227C23.2263 11.4299 23.4299 11.2869 23.5852 11.0937C23.7405 10.9006 23.8182 10.6544 23.8182 10.3551C23.8182 10.0559 23.7405 9.80966 23.5852 9.61648C23.4299 9.4233 23.2263 9.2803 22.9744 9.1875C22.7225 9.0947 22.4508 9.0483 22.1591 9.0483C21.8674 9.0483 21.5966 9.0947 21.3466 9.1875C21.0966 9.2803 20.8949 9.4233 20.7415 9.61648C20.5881 9.80966 20.5114 10.0559 20.5114 10.3551ZM19.9091 15.1286C19.9091 14.7195 20.0057 14.3672 20.1989 14.0717C20.392 13.7763 20.6581 13.549 20.9972 13.3899C21.3362 13.2308 21.7235 13.1513 22.1591 13.1513C22.6023 13.1513 22.9934 13.2327 23.3324 13.3956C23.6733 13.5604 23.9394 13.7895 24.1307 14.0831C24.3239 14.3786 24.4205 14.7232 24.4205 15.1172C24.4205 15.424 24.3636 15.7005 24.25 15.9467C24.1364 16.1929 23.9773 16.3946 23.7727 16.5518C23.5682 16.709 23.3295 16.8066 23.0568 16.8445L23.0568 16.174C23.2557 16.1229 23.4318 16.0092 23.5852 15.8331C23.7405 15.6589 23.8182 15.424 23.8182 15.1286C23.8182 14.8672 23.75 14.638 23.6136 14.4411C23.4792 14.246 23.2888 14.0935 23.0426 13.9837C22.7983 13.8757 22.5114 13.8217 22.1818 13.8217C21.8447 13.8217 21.5511 13.8748 21.3011 13.9808C21.0511 14.0888 20.857 14.2403 20.7187 14.4354C20.5805 14.6323 20.5114 14.8634 20.5114 15.1286C20.5114 15.3028 20.5417 15.4609 20.6023 15.603C20.6629 15.745 20.75 15.8653 20.8636 15.9638C20.9773 16.0623 21.1136 16.1323 21.2727 16.174L21.2727 16.8445C21.0152 16.8066 20.7831 16.7128 20.5767 16.5632C20.3722 16.4155 20.2093 16.2195 20.0881 15.9751C19.9687 15.7327 19.9091 15.4505 19.9091 15.1286Z" fill="white"/>
<rect x="4" y="7" width="10" height="1" rx="0.5" fill="white"/>
<rect x="4" y="10" width="8" height="1" rx="0.5" fill="white"/>
<rect x="4" y="13" width="6" height="1" rx="0.5" fill="white"/>
</svg>
