<svg width="57" height="40" viewBox="0 0 57 40" fill="none" xmlns="http://www.w3.org/2000/svg">
<path d="M21.9328 5.45546C18.5075 8.46292 15.5522 11.0599 15.3582 11.2465L15 11.5749L15.0224 19.5002L15.0373 27.4256L22.1045 27.448L29.1791 27.4629L29.194 23.3584L29.2164 19.2465L32.1045 21.7838C33.694 23.1793 35.0298 24.336 35.0746 24.3659C35.1268 24.3957 35.1492 23.9778 35.1492 23.1122V21.8136L32.291 19.3136C30.7239 17.9331 29.3806 16.739 29.3059 16.6569C29.194 16.5301 29.1791 16.3734 29.194 15.3062L29.2164 14.0972L31.5149 16.1122C32.7836 17.2241 33.8283 18.1345 33.8507 18.1345C33.8656 18.1345 33.8806 17.5525 33.8806 16.8435V15.5525L31.6642 13.6047C30.4403 12.5375 29.3806 11.5898 29.3059 11.5152C29.194 11.3808 29.1791 11.2241 29.194 10.1569L29.2164 8.94799L30.6343 10.1943C31.4179 10.8734 32.1268 11.5002 32.2239 11.5898L32.388 11.739L32.3806 10.4032V9.0674L30.3209 7.27635C29.194 6.29128 28.2388 5.48531 28.2089 5.48531C28.1716 5.48531 27.2239 6.29128 26.0895 7.27635L24.0373 9.0674V10.4032L24.0298 11.739L24.2015 11.5898C24.291 11.5002 25.0074 10.8734 25.7836 10.1943L27.2015 8.94799L27.2239 10.1569C27.2388 11.2241 27.2239 11.3808 27.1119 11.5152C27.0373 11.5898 25.9776 12.5375 24.7612 13.6047L22.5373 15.5525V16.8435C22.5373 17.5525 22.5522 18.1345 22.5672 18.1345C22.5895 18.1345 23.6418 17.2241 24.903 16.1196L27.2015 14.0972L27.2239 15.3062C27.2388 16.3734 27.2239 16.5301 27.1119 16.6569C27.0373 16.739 25.694 17.9331 24.1269 19.3136L21.2686 21.8136V23.1196C21.2686 24.3435 21.2761 24.4181 21.3955 24.3211C21.4701 24.2614 22.7537 23.142 24.2537 21.836C25.7537 20.5226 27.0373 19.4032 27.1119 19.3435C27.2313 19.239 27.2388 19.3883 27.2388 22.336V25.448H22.1269H17.0149V18.9331V12.4181L21.1418 8.79874C27.9328 2.8286 28.1418 2.6495 28.2089 2.6495C28.2462 2.6495 30.7761 4.84352 33.8358 7.53009L39.4029 12.4181V18.9331V25.448H35.2985H31.1865L31.2089 26.433L31.2313 27.4256H36.3059H41.3806L41.3955 19.5002L41.4179 11.5749L41.0597 11.2465C40.3432 10.5749 28.2612 0.000245824 28.2089 0.000245824C28.1791 0.000245824 25.3582 2.45547 21.9328 5.45546Z" fill="#BD6736"/>
<path d="M11.6649 31.4925C11.0231 31.6567 10.7097 31.8134 10.0978 32.2612C9.02315 33.0597 8.43359 34.2314 8.43359 35.597C8.43359 36.8284 8.86643 37.8881 9.70225 38.7313C10.5455 39.5672 11.6052 40 12.8366 40C14.1425 40 15.1425 39.5821 16.0455 38.6642C17.3888 37.306 17.6724 35.5149 16.8291 33.7463C16.3216 32.6717 15.1425 31.7388 13.941 31.4552C13.2993 31.306 12.3216 31.3209 11.6649 31.4925ZM13.8813 32.9627C15.3515 33.4478 16.1575 35 15.7172 36.5149C15.1052 38.6269 12.2097 39.2687 10.6649 37.6343C10.2246 37.1716 10.1127 36.9851 9.95598 36.4552C9.58285 35.1567 10.247 33.6717 11.456 33.1045C12.1799 32.7612 13.0978 32.709 13.8813 32.9627Z" fill="white"/>
<path d="M29.7078 31.4925C28.2152 31.8881 26.9914 33.097 26.6033 34.5522C26.4764 35.0373 26.4615 36.0299 26.5735 36.5821C26.8272 37.806 27.76 39 28.9018 39.5448C29.6406 39.8955 30.0958 40 30.9466 40C32.2003 40 33.2152 39.5746 34.1033 38.6642C35.4466 37.291 35.7302 35.4851 34.8794 33.7314C34.3421 32.6493 33.1929 31.7388 31.9988 31.4552C31.3496 31.306 30.3794 31.3209 29.7078 31.4925ZM31.9391 32.9627C32.7526 33.2314 33.4317 33.8806 33.7302 34.6791C33.8645 35.0373 33.8869 35.2314 33.8645 35.7836C33.8272 36.6194 33.6033 37.1493 33.0585 37.6866C32.1406 38.6119 30.6929 38.8284 29.4914 38.2164C29.0809 38.0075 28.4988 37.4702 28.2675 37.0896C27.7302 36.2015 27.8123 34.8433 28.469 33.9552C29.2078 32.9478 30.6406 32.5373 31.9391 32.9627Z" fill="white"/>
<path d="M0.671641 31.6043C0.671641 31.6342 2.75373 34.5446 3.18656 35.1192L3.3582 35.3506L1.6791 37.5745C0.75373 38.7909 0 39.8058 0 39.8207C0 39.8357 0.410447 39.8506 0.917909 39.8431H1.82836L3.02238 38.2461C3.6791 37.3655 4.24626 36.6566 4.29104 36.6715C4.32835 36.6789 4.88059 37.4028 5.51492 38.2685L6.66417 39.8506H7.58208H8.50745L7.88805 39.0073C5.55223 35.8431 5.21641 35.373 5.26865 35.2834C5.30596 35.2312 5.90298 34.4103 6.60447 33.47C7.30596 32.5222 7.90297 31.7088 7.93282 31.6566C7.9776 31.5894 7.7985 31.567 7.10447 31.567H6.20895L5.26119 32.8357C4.7388 33.5297 4.2985 34.1043 4.29104 34.1043C4.27611 34.1043 3.84328 33.5297 3.32835 32.8357L2.38806 31.567H1.52985C1.0597 31.567 0.671641 31.5819 0.671641 31.6043Z" fill="white"/>
<path d="M18.8066 35.7088V39.8506H19.5529H20.2992V38.7685V37.6864H21.5902C22.9932 37.6864 23.3887 37.6192 24.0231 37.2685C25.1051 36.6864 25.7544 35.3357 25.5305 34.1342C25.3141 32.9476 24.4932 32.0222 23.3663 31.6864C23.0305 31.5894 22.5753 31.567 20.8813 31.567H18.8066V35.7088ZM23.2469 33.2163C23.7842 33.4849 24.0529 33.9028 24.0902 34.5073C24.1201 34.9252 24.0977 35.0372 23.9186 35.3655C23.7992 35.5745 23.5828 35.8282 23.4111 35.9476C23.1126 36.1566 23.1051 36.1566 21.7022 36.1789L20.2992 36.2013V34.5894V32.97L21.5902 32.9999C22.7992 33.0222 22.9036 33.0372 23.2469 33.2163Z" fill="white"/>
<path d="M37.1641 35.7084V39.8502H37.873H38.582L38.5969 37.7681L38.6193 35.6785L39.8506 37.7979C40.5297 38.9621 41.1044 39.9173 41.1267 39.9248C41.1566 39.9248 41.7387 38.9621 42.4327 37.783L43.6939 35.6412L43.7163 37.7457L43.7312 39.8502H44.4402H45.1491V35.7084V31.5666H44.7461H44.3506L42.7536 34.3278C41.8805 35.8427 41.1417 37.089 41.1193 37.089C41.0969 37.0815 40.3805 35.8427 39.5148 34.3278L37.9476 31.5666H37.5596H37.1641V35.7084Z" fill="white"/>
<path d="M47.4609 35.7088V39.8506H49.4609C51.6923 39.8506 52.0505 39.7983 52.752 39.3804C53.2594 39.0745 53.6102 38.6715 53.9087 38.0595C54.1251 37.6043 54.14 37.5222 54.14 36.7536C54.14 35.9998 54.1251 35.8954 53.9236 35.4849C53.6251 34.8804 53.0356 34.3058 52.4087 34.0073L51.9012 33.7685L50.4311 33.7461L48.9535 33.7163V32.6416V31.567H48.2072H47.4609V35.7088ZM51.8042 35.3282C52.7744 35.7984 53.0505 37.0297 52.3714 37.8058C51.9311 38.3058 51.7371 38.3581 50.2594 38.3581H48.9535V36.7461V35.1342L50.2445 35.164C51.2893 35.1864 51.5803 35.2163 51.8042 35.3282Z" fill="white"/>
<path d="M55 35.7088V39.8506H55.7015C56.2463 39.8506 56.4104 39.8282 56.4478 39.7386C56.4701 39.6789 56.4776 37.8282 56.4701 35.6192L56.4552 31.6043L55.7313 31.5819L55 31.5596V35.7088Z" fill="white"/>
</svg>
