<svg width="113" height="80" viewBox="0 0 113 80" fill="none" xmlns="http://www.w3.org/2000/svg">
<path d="M43.8657 10.9099C37.0149 16.9248 31.1045 22.1189 30.7164 22.492L30 23.1487L30.0448 38.9994L30.0746 54.8502L44.2089 54.895L58.3582 54.9248L58.388 46.7159L58.4328 38.492L64.2089 43.5666C67.388 46.3576 70.0597 48.6711 70.1492 48.7308C70.2537 48.7905 70.2985 47.9547 70.2985 46.2233V43.6263L64.5821 38.6263C61.4477 35.8651 58.7612 33.4771 58.6119 33.3129C58.388 33.0592 58.3582 32.7457 58.388 30.6114L58.4328 28.1935L63.0298 32.2233C65.5671 34.4472 67.6567 36.2681 67.7015 36.2681C67.7313 36.2681 67.7612 35.1039 67.7612 33.686V31.1039L63.3283 27.2084C60.8806 25.0741 58.7612 23.1786 58.6119 23.0293C58.388 22.7607 58.3582 22.4472 58.388 20.3129L58.4328 17.895L61.2686 20.3875C62.8358 21.7457 64.2537 22.9995 64.4477 23.1786L64.7761 23.4771L64.7612 20.8054V18.1338L60.6418 14.5517C58.388 12.5816 56.4776 10.9696 56.4179 10.9696C56.3433 10.9696 54.4477 12.5816 52.1791 14.5517L48.0746 18.1338V20.8054L48.0597 23.4771L48.403 23.1786C48.5821 22.9995 50.0149 21.7457 51.5671 20.3875L54.403 17.895L54.4477 20.3129C54.4776 22.4472 54.4477 22.7607 54.2239 23.0293C54.0746 23.1786 51.9552 25.0741 49.5224 27.2084L45.0746 31.1039V33.686C45.0746 35.1039 45.1045 36.2681 45.1343 36.2681C45.1791 36.2681 47.2836 34.4472 49.806 32.2383L54.403 28.1935L54.4477 30.6114C54.4776 32.7457 54.4477 33.0592 54.2239 33.3129C54.0746 33.4771 51.388 35.8651 48.2537 38.6263L42.5373 43.6263V46.2382C42.5373 48.686 42.5522 48.8353 42.791 48.6412C42.9403 48.5218 45.5074 46.283 48.5074 43.6711C51.5074 41.0442 54.0746 38.8054 54.2239 38.686C54.4627 38.4771 54.4776 38.7756 54.4776 44.6711V50.895H44.2537H34.0298V37.8651V24.8353L42.2836 17.5965C55.8656 5.6562 56.2836 5.29799 56.4179 5.29799C56.4925 5.29799 61.5522 9.68604 67.6716 15.0592L78.8059 24.8353V37.8651V50.895H70.597H62.3731L62.4179 52.8651L62.4627 54.8502H72.6119H82.7611L82.791 38.9994L82.8358 23.1487L82.1194 22.492C80.6865 21.1487 56.5224 -0.000514984 56.4179 -0.000514984C56.3582 -0.000514984 50.7164 4.90993 43.8657 10.9099Z" fill="#BD6736"/>
<path d="M23.3299 62.9851C22.0463 63.3134 21.4194 63.6269 20.1955 64.5224C18.0463 66.1194 16.8672 68.4627 16.8672 71.194C16.8672 73.6567 17.7329 75.7761 19.4045 77.4627C21.0911 79.1343 23.2105 80 25.6731 80C28.2851 80 30.2851 79.1642 32.0911 77.3284C34.7776 74.6119 35.3448 71.0299 33.6582 67.4925C32.6433 65.3433 30.2851 63.4776 27.8821 62.9105C26.5985 62.612 24.6433 62.6418 23.3299 62.9851ZM27.7627 65.9254C30.703 66.8955 32.3149 70 31.4343 73.0299C30.2105 77.2537 24.4194 78.5373 21.3299 75.2687C20.4493 74.3433 20.2254 73.9702 19.912 72.9105C19.1657 70.3134 20.494 67.3433 22.912 66.209C24.3597 65.5224 26.1955 65.4179 27.7627 65.9254Z" fill="#BD6736"/>
<path d="M59.4136 62.9851C56.4285 63.7761 53.9808 66.194 53.2047 69.1045C52.9509 70.0746 52.9211 72.0597 53.145 73.1642C53.6524 75.6119 55.5181 78 57.8017 79.0896C59.2793 79.791 60.1897 80 61.8912 80C64.3987 80 66.4285 79.1493 68.2047 77.3284C70.8912 74.5821 71.4584 70.9702 69.7569 67.4627C68.6823 65.2985 66.3838 63.4776 63.9957 62.9105C62.6972 62.612 60.7569 62.6418 59.4136 62.9851ZM63.8763 65.9254C65.5032 66.4627 66.8614 67.7612 67.4584 69.3582C67.727 70.0746 67.7718 70.4627 67.727 71.5672C67.6524 73.2388 67.2047 74.2985 66.1151 75.3731C64.2793 77.2239 61.3838 77.6567 58.9808 76.4328C58.1599 76.0149 56.9957 74.9403 56.533 74.1791C55.4584 72.403 55.6226 69.6866 56.936 67.9105C58.4136 65.8955 61.2793 65.0746 63.8763 65.9254Z" fill="#BD6736"/>
<path d="M1.34328 63.2087C1.34328 63.2684 5.50746 69.0892 6.37313 70.2385L6.71641 70.7012L3.35821 75.1489C1.50746 77.5818 0 79.6116 0 79.6415C0 79.6713 0.820895 79.7012 1.83582 79.6862H3.65671L6.04477 76.4922C7.3582 74.731 8.49253 73.3131 8.58208 73.343C8.65671 73.3579 9.76118 74.8057 11.0298 76.537L13.3283 79.7012H15.1642H17.0149L15.7761 78.0146C11.1045 71.6863 10.4328 70.746 10.5373 70.5669C10.6119 70.4624 11.806 68.8206 13.2089 66.94C14.6119 65.0445 15.806 63.4176 15.8657 63.3131C15.9552 63.1788 15.597 63.134 14.2089 63.134H12.4179L10.5224 65.6713C9.4776 67.0594 8.59701 68.2086 8.58208 68.2086C8.55223 68.2086 7.68656 67.0594 6.65671 65.6713L4.77611 63.134H3.0597C2.1194 63.134 1.34328 63.1639 1.34328 63.2087Z" fill="#BD6736"/>
<path d="M37.6133 71.4176V79.7012H39.1058H40.5984V77.537V75.3728H43.1804C45.9864 75.3728 46.7775 75.2385 48.0461 74.537C50.2103 73.3728 51.5088 70.6713 51.061 68.2683C50.6282 65.8952 48.9864 64.0445 46.7327 63.3728C46.061 63.1788 45.1506 63.134 41.7625 63.134H37.6133V71.4176ZM46.4939 66.4325C47.5685 66.9698 48.1058 67.8057 48.1804 69.0146C48.2401 69.8504 48.1954 70.0743 47.8372 70.731C47.5983 71.1489 47.1655 71.6564 46.8222 71.8952C46.2252 72.3131 46.2103 72.3131 43.4043 72.3579L40.5984 72.4027V69.1788V65.94L43.1804 65.9997C45.5983 66.0445 45.8073 66.0743 46.4939 66.4325Z" fill="#BD6736"/>
<path d="M74.3281 71.4178V79.7013H75.746H77.1639L77.1938 75.5372L77.2386 71.3581L79.7013 75.5969C81.0595 77.9252 82.2087 79.8357 82.2535 79.8506C82.3132 79.8506 83.4774 77.9252 84.8654 75.567L87.3878 71.2834L87.4326 75.4924L87.4624 79.7013H88.8804H90.2983V71.4178V63.1342H89.4923H88.7012L85.5072 68.6566C83.761 71.6864 82.2833 74.1789 82.2386 74.1789C82.1938 74.164 80.761 71.6864 79.0296 68.6566L75.8953 63.1342H75.1192H74.3281V71.4178Z" fill="#BD6736"/>
<path d="M94.9219 71.4176V79.7012H98.9219C103.385 79.7012 104.101 79.5967 105.504 78.7609C106.519 78.1489 107.22 77.343 107.817 76.1191C108.25 75.2086 108.28 75.0445 108.28 73.5071C108.28 71.9997 108.25 71.7907 107.847 70.9698C107.25 69.7609 106.071 68.6116 104.817 68.0146L103.802 67.537L100.862 67.4922L97.9069 67.4325V65.2833V63.134H96.4144H94.9219V71.4176ZM103.608 70.6564C105.549 71.5967 106.101 74.0594 104.743 75.6116C103.862 76.6116 103.474 76.7161 100.519 76.7161H97.9069V73.4922V70.2683L100.489 70.328C102.579 70.3728 103.161 70.4325 103.608 70.6564Z" fill="#BD6736"/>
<path d="M110 71.4176V79.7012H111.403C112.493 79.7012 112.821 79.6564 112.896 79.4773C112.94 79.3579 112.955 75.6564 112.94 71.2385L112.91 63.2087L111.463 63.1639L110 63.1191V71.4176Z" fill="#BD6736"/>
</svg>
