<svg width="19" height="20" viewBox="0 0 19 20" fill="none" xmlns="http://www.w3.org/2000/svg">
<path d="M9.5 0.919922C4.25171 0.919922 0 5.17224 0 10.4199C0 15.6676 4.25232 19.9199 9.5 19.9199C14.7483 19.9199 19 15.6676 19 10.4199C19 5.17224 14.7477 0.919922 9.5 0.919922ZM14.166 7.42834L12.6068 14.7758C12.4916 15.2968 12.1815 15.4231 11.7487 15.1779L9.37374 13.4274L8.22823 14.5307C8.10197 14.6569 7.99471 14.7642 7.74955 14.7642L7.9181 12.3469L12.3194 8.37037C12.5112 8.20183 12.2771 8.10621 12.0239 8.27476L6.58442 11.6991L4.24006 10.9672C3.73074 10.8067 3.7191 10.4579 4.34732 10.2128L13.5065 6.6806C13.9319 6.52737 14.3033 6.78418 14.1654 7.42773L14.166 7.42834Z" fill="#BD6736"/>
</svg>
