<svg width="19" height="19" viewBox="0 0 19 19" fill="none" xmlns="http://www.w3.org/2000/svg">
<path fill-rule="evenodd" clip-rule="evenodd" d="M1.33559 1.33559C0 2.67119 0 4.82079 0 9.12L0 9.88C0 14.1792 0 16.3288 1.33559 17.6644C2.67119 19 4.82079 19 9.12 19L9.88 19C14.1792 19 16.3288 19 17.6644 17.6644C19 16.3288 19 14.1792 19 9.88V9.12C19 4.82079 19 2.67119 17.6644 1.33559C16.3288 0 14.1792 0 9.88 0L9.12 0C4.82079 0 2.67119 0 1.33559 1.33559ZM3.20629 5.77921C3.30919 10.7192 5.77917 13.6879 10.1096 13.6879H10.3551L10.3551 10.8617C11.9463 11.02 13.1496 12.1838 13.6325 13.6879L15.8809 13.6879C15.2634 11.4396 13.6404 10.1967 12.627 9.72169C13.6404 9.13587 15.0654 7.71087 15.4058 5.77921L13.3632 5.77921C12.9199 7.34671 11.6059 8.77169 10.3551 8.90627L10.3551 5.77921L8.31248 5.77921L8.31248 11.2575C7.04583 10.9409 5.44669 9.40504 5.37544 5.77921L3.20629 5.77921Z" fill="#BD6736"/>
</svg>
