<svg width="19" height="20" viewBox="0 0 19 20" fill="none" xmlns="http://www.w3.org/2000/svg">
<path fill-rule="evenodd" clip-rule="evenodd" d="M16.15 3.61504C14.3688 1.83379 11.9937 0.883789 9.5 0.883789C4.275 0.883789 0 5.15879 0 10.3838C0 12.0463 0.475007 13.7088 1.30626 15.1338L0 19.8838L4.98751 18.5775C6.41251 19.29 7.95625 19.765 9.5 19.765C14.725 19.765 19 15.49 19 10.265C19 7.77129 17.9313 5.39629 16.15 3.61504ZM9.5 18.2213C8.075 18.2213 6.65001 17.865 5.46251 17.1525L5.22499 17.0338L2.25624 17.865L3.08751 15.015L2.84999 14.6588C2.01874 13.3525 1.66249 11.9275 1.66249 10.5025C1.66249 6.22754 5.225 2.66504 9.5 2.66504C11.6375 2.66504 13.5375 3.49629 15.0813 4.92129C16.625 6.46504 17.3375 8.36504 17.3375 10.5025C17.3375 14.6588 13.8938 18.2213 9.5 18.2213ZM13.775 12.2838C13.5375 12.165 12.35 11.5713 12.1125 11.5713C11.875 11.4525 11.7562 11.4525 11.6375 11.69C11.5187 11.9275 11.0438 12.4025 10.925 12.64C10.8063 12.7588 10.6875 12.7588 10.45 12.7588C10.2125 12.64 9.50001 12.4025 8.55001 11.5713C7.83751 10.9775 7.36251 10.1463 7.24376 9.90879C7.12501 9.67129 7.24376 9.55254 7.36251 9.43379C7.48126 9.31504 7.6 9.19629 7.71875 9.07754C7.8375 8.95879 7.83751 8.84004 7.95626 8.72129C8.07501 8.60254 7.95626 8.48379 7.95626 8.36504C7.95626 8.24629 7.48126 7.05879 7.24376 6.58379C7.12501 6.22754 6.88751 6.22754 6.76876 6.22754C6.65001 6.22754 6.53124 6.22754 6.29374 6.22754C6.17499 6.22754 5.93749 6.22754 5.69999 6.46504C5.46249 6.70254 4.86876 7.29629 4.86876 8.48379C4.86876 9.67129 5.69999 10.74 5.81874 10.9775C5.93749 11.0963 7.48124 13.59 9.85624 14.54C11.875 15.3713 12.2313 15.1338 12.7063 15.1338C13.1813 15.1338 14.1313 14.54 14.25 14.065C14.4875 13.4713 14.4875 12.9963 14.3688 12.9963C14.25 12.4025 14.0125 12.4025 13.775 12.2838Z" fill="#BD6736"/>
</svg>
