<svg width="27" height="19" viewBox="0 0 27 19" fill="none" xmlns="http://www.w3.org/2000/svg">
<path d="M24.8744 2.30939C24.8236 2.23882 24.7599 2.17931 24.6868 2.13427C24.6138 2.08922 24.5329 2.05953 24.4487 2.04687C24.3646 2.03422 24.2789 2.03886 24.1965 2.06052C24.1141 2.08218 24.0366 2.12045 23.9685 2.17313L13.5311 10.2411C13.4937 10.2701 13.4483 10.2858 13.4016 10.2858C13.355 10.2858 13.3096 10.2701 13.2722 10.2411L3.03967 2.13739C2.97211 2.08401 2.89507 2.04492 2.81292 2.02237C2.73078 1.99982 2.64516 1.99425 2.56093 2.00597C2.47671 2.01769 2.39554 2.04647 2.32206 2.09067C2.24858 2.13488 2.18423 2.19364 2.13267 2.2636C2.08112 2.33356 2.04338 2.41334 2.02161 2.49841C1.99983 2.58347 1.99445 2.67214 2.00576 2.75936C2.01708 2.84658 2.04487 2.93064 2.08756 3.00673C2.13025 3.08282 2.18699 3.14947 2.25454 3.20285L10.3 9.57551L2.34298 15.7851C2.27443 15.8381 2.21662 15.9045 2.17286 15.9805C2.1291 16.0566 2.10023 16.1409 2.08791 16.2285C2.07559 16.3161 2.08006 16.4054 2.10107 16.4913C2.12207 16.5771 2.1592 16.6578 2.21032 16.7288C2.26145 16.7998 2.32558 16.8597 2.39905 16.905C2.47252 16.9503 2.55388 16.9802 2.63851 16.993C2.72313 17.0057 2.80935 17.0011 2.89224 16.9793C2.97514 16.9576 3.05309 16.9191 3.12163 16.8662L11.3676 10.4198L12.4849 11.3133C12.7455 11.5198 13.0638 11.6328 13.3919 11.6352C13.72 11.6377 14.0399 11.5294 14.3032 11.3267L15.4766 10.4198L23.8197 16.8662C23.8878 16.9189 23.9653 16.9571 24.0477 16.9787C24.1301 17.0004 24.2158 17.005 24.2999 16.9924C24.384 16.9797 24.4649 16.95 24.538 16.905C24.611 16.86 24.6748 16.8005 24.7256 16.7299C24.7765 16.6594 24.8134 16.5792 24.8343 16.4939C24.8552 16.4085 24.8597 16.3198 24.8474 16.2327C24.8352 16.1455 24.8066 16.0618 24.7631 15.9861C24.7196 15.9105 24.6622 15.8445 24.594 15.7918L16.5573 9.57327L24.7429 3.24083C24.8786 3.13466 24.9686 2.97739 24.9932 2.80306C25.0178 2.62874 24.9751 2.45138 24.8744 2.30939Z" fill="#BD6736"/>
<path d="M23.8359 0H3.16406C2.3249 0 1.52011 0.33363 0.926732 0.927495C0.333356 1.52136 0 2.32681 0 3.16667L0 15.8333C0 16.6732 0.333356 17.4786 0.926732 18.0725C1.52011 18.6664 2.3249 19 3.16406 19H23.8359C24.6751 19 25.4799 18.6664 26.0733 18.0725C26.6666 17.4786 27 16.6732 27 15.8333V3.16667C27 2.32681 26.6666 1.52136 26.0733 0.927495C25.4799 0.33363 24.6751 0 23.8359 0ZM25.7344 15.8333C25.7344 16.3372 25.5344 16.8205 25.1783 17.1768C24.8223 17.5332 24.3394 17.7333 23.8359 17.7333H3.16406C2.66057 17.7333 2.17769 17.5332 1.82166 17.1768C1.46564 16.8205 1.26562 16.3372 1.26562 15.8333V3.16667C1.26562 2.66276 1.46564 2.17948 1.82166 1.82316C2.17769 1.46684 2.66057 1.26667 3.16406 1.26667H23.8359C24.3394 1.26667 24.8223 1.46684 25.1783 1.82316C25.5344 2.17948 25.7344 2.66276 25.7344 3.16667V15.8333Z" fill="#BD6736"/>
</svg>
