<svg width="26" height="26" viewBox="0 0 26 26" fill="none" xmlns="http://www.w3.org/2000/svg">
<path d="M13 1.625C19.2715 1.625 24.375 6.72852 24.375 13C24.375 19.2715 19.2715 24.375 13 24.375C6.72852 24.375 1.625 19.2715 1.625 13C1.625 6.72852 6.72852 1.625 13 1.625ZM13 0C5.8208 0 0 5.8208 0 13C0 20.1792 5.8208 26 13 26C20.1792 26 26 20.1792 26 13C26 5.8208 20.1792 0 13 0ZM20.2474 17.3466L20.1744 17.1244C20.003 16.6134 19.4381 16.0802 18.9176 15.9374L16.9959 15.4121C16.4754 15.2709 15.7327 15.4613 15.3503 15.8438L14.6552 16.5388C12.1288 15.8549 10.1468 13.8728 9.46441 11.3465L10.1595 10.6514C10.5404 10.2705 10.7308 9.52783 10.5896 9.00575L10.0658 7.08398C9.92459 6.56348 9.38818 5.99854 8.87722 5.82715L8.6582 5.75412C8.14562 5.58274 7.41406 5.7557 7.0332 6.13818L5.99219 7.1792C5.80653 7.36328 5.6875 7.89334 5.6875 7.89334C5.65256 11.1973 6.94754 14.3791 9.28347 16.7166C11.6131 19.0462 14.7837 20.3396 18.0765 20.3109C18.094 20.3109 18.6383 20.1951 18.824 20.0094L19.865 18.9684C20.2459 18.5891 20.4172 17.8575 20.2474 17.3466Z" fill="#BD6736"/>
</svg>
